# xmcd
#
# Track frame offsets:
#       150
#       19268
#       37880
#       54152
#       73763
#       90717
#       113327
#       128298
#       146533
#       171823
#       189845
#       208486
#       230796
#       257920
#       279525
#       293769
#       319954
#       336227
#
# Disc length: 4783 seconds
#
# Revision: 2
# Processed by: cddbd v1.5.2PL0 Copyright (c) Steve Scherf et al.
# Submitted via: WaveLab 6.10
#
DISCID=0712ad12
DTITLE=Lionel Richie - Back To Front - Revised Version
DYEAR=2007
DGENRE=Soul
TTITLE0=ALL NIGHT LONG
TTITLE1=HELLO
TTITLE2=BALLERINA GIRL
TTITLE3=DANCING ON THE CEILING
TTITLE4=PENNY LOVER
TTITLE5=YOU ARE
TTITLE6=TRULY
TTITLE7=MY LOVE
TTITLE8=LOVE WILL CONQUER ALL
TTITLE9=SAY YOU SAY ME
TTITLE10=RUNNING WITH THE NIGHT
TTITLE11=DON'T WANNA LOSE YOU
TTITLE12=DO IT TO ME
TTITLE13=MY DESTINY
TTITLE14=STUCK ON YOU
TTITLE15=SE LA
TTITLE16=THREE TIMES A LADY
TTITLE17=NIGHT SHIFT
EXTD=
EXTT0=
EXTT1=
EXTT2=
EXTT3=
EXTT4=
EXTT5=
EXTT6=
EXTT7=
EXTT8=
EXTT9=
EXTT10=
EXTT11=
EXTT12=
EXTT13=
EXTT14=
EXTT15=
EXTT16=
EXTT17=
PLAYORDER=
